<?xml version="1.0" encoding="UTF-8" standalone="no"?>
<!DOCTYPE svg PUBLIC "-//W3C//DTD SVG 1.1//EN" "http://www.w3.org/Graphics/SVG/1.1/DTD/svg11.dtd">
<svg width="100%" height="100%" viewBox="0 0 800 638" version="1.1" xmlns="http://www.w3.org/2000/svg" xmlns:xlink="http://www.w3.org/1999/xlink" xml:space="preserve" xmlns:serif="http://www.serif.com/" style="fill-rule:evenodd;clip-rule:evenodd;stroke-linejoin:round;stroke-miterlimit:2;">
    <g transform="matrix(1.33333,0,0,1.33333,-1233.13,-82.9295)">
        <g id="Logo" transform="matrix(0.943291,0,0,0.943291,3.24847,-147.659)">
            <g transform="matrix(0.568348,0,0,1,705.862,-253)">
                <path d="M943.859,475.473L1129.08,475.473C1127.13,483.627 1128.66,492.361 1133.54,499.453C1168.06,549.582 1221.99,627.892 1253.25,673.283C1258.84,681.407 1268.07,686.259 1277.94,686.259C1287.8,686.259 1297.03,681.407 1302.63,673.283C1333.88,627.892 1387.81,549.582 1422.33,499.453C1427.21,492.361 1428.75,483.627 1426.8,475.473L1565.89,475.473C1577.03,475.473 1587.25,481.646 1592.43,491.504C1597.61,501.363 1596.9,513.28 1590.59,522.453C1522.1,621.909 1363.75,851.861 1302.63,940.618C1297.03,948.742 1287.8,953.594 1277.94,953.594C1268.07,953.594 1258.84,948.742 1253.25,940.618L1036.47,625.819L819.69,940.618C814.096,948.742 804.864,953.594 795,953.594C785.136,953.594 775.904,948.742 770.31,940.618C709.189,851.861 550.84,621.909 482.352,522.453C476.035,513.28 475.324,501.363 480.505,491.504C485.686,481.646 495.905,475.473 507.042,475.473L646.141,475.473C644.19,483.627 645.723,492.361 650.606,499.453C685.127,549.582 739.052,627.892 770.31,673.283C775.904,681.407 785.136,686.259 795,686.259C804.864,686.259 814.096,681.407 819.69,673.283C850.948,627.892 904.873,549.582 939.394,499.453C944.277,492.361 945.81,483.627 943.859,475.473Z" style="fill:rgb(60,112,164);"/>
            </g>
            <g transform="matrix(1.10013,0,0,1,-125.326,0)">
                <path d="M1580,686.625C1580,678.829 1574.25,672.5 1567.16,672.5L1014.84,672.5C1007.75,672.5 1002,678.829 1002,686.625L1002,714.875C1002,722.671 1007.75,729 1014.84,729L1567.16,729C1574.25,729 1580,722.671 1580,714.875L1580,686.625Z" style="fill:rgb(60,112,164);"/>
            </g>
        </g>
    </g>
</svg>
